<svg xmlns="http://www.w3.org/2000/svg" width="1300" height="612" fill="none"><g fill="#EFEFF2" clip-path="url(#a)"><path d="M111.837 465.059c-15.502 0-30.015-2.473-43.538-7.421-13.193-4.947-24.902-11.874-35.126-20.779-9.895-8.905-17.811-19.46-23.748-31.664-5.937-11.873-9.07-24.902-9.4-39.084-.33-18.471 2.638-34.962 8.905-49.475 5.937-14.512 13.853-27.376 23.748-38.59 10.225-11.214 21.769-20.614 34.632-28.2 12.863-7.916 26.056-14.348 39.579-19.295-7.256-3.958-14.182-8.741-20.779-14.348a114.228 114.228 0 0 1-16.821-18.8c-4.948-6.927-8.906-14.183-11.874-21.769-2.968-7.586-4.453-15.172-4.453-22.758-.66-23.088 3.958-44.032 13.853-62.833 10.225-18.8 23.253-34.797 39.085-47.99 15.832-13.523 33.478-23.912 52.938-31.169C178.627 3.628 197.922 0 216.723 0c12.533 0 23.253 2.144 32.158 6.432 8.905 3.958 16.162 9.07 21.769 15.337 5.607 5.937 9.73 12.533 12.368 19.79 2.969 6.926 4.618 13.358 4.948 19.294.33 10.885-1.155 21.934-4.453 33.148-2.968 11.215-6.926 21.439-11.874 30.674-4.617 8.906-9.895 16.327-15.832 22.264-5.937 5.607-11.709 8.411-17.316 8.411-4.287 0-8.74-.66-13.358-1.979-3.958-.99-8.575-2.639-13.853-4.948-5.277-2.309-10.554-5.772-15.831-10.389 8.575-3.299 16.161-7.916 22.758-13.853 6.596-6.267 12.039-13.193 16.326-20.779 4.618-7.587 7.916-15.338 9.895-23.254 2.309-8.245 3.463-15.996 3.463-23.252-.329-10.555-2.803-18.636-7.421-24.243-4.617-5.937-12.038-8.905-22.263-8.905-13.853 0-27.706 3.463-41.559 10.39-13.852 6.596-26.221 15.996-37.105 28.2-10.555 11.874-18.966 26.221-25.232 43.042-5.937 16.492-7.916 34.468-5.937 53.928 1.649 14.842 6.102 27.375 13.358 37.6 7.586 10.225 14.677 18.141 21.274 23.748 5.277-.66 10.224-1.155 14.842-1.484 4.618-.66 8.905-.99 12.863-.99 5.608 0 11.215.99 16.822 2.969 5.607 1.979 8.41 4.782 8.41 8.41 0 2.639-.659 5.607-1.979 8.906-.989 3.298-2.803 6.431-5.442 9.4-2.638 2.968-5.772 5.442-9.4 7.421s-7.916 2.968-12.863 2.968c-3.958 0-8.741-.989-14.348-2.968-5.607-1.979-11.214-4.453-16.821-7.421-12.534 2.638-23.913 7.421-34.137 14.347-10.225 6.597-18.966 14.513-26.222 23.748a116.215 116.215 0 0 0-16.326 30.179c-3.958 10.885-5.773 21.439-5.443 31.664.33 9.565 1.814 19.13 4.453 28.695 2.639 9.895 6.762 18.636 12.369 26.222 5.607 7.586 12.863 13.688 21.768 18.305 9.236 4.948 20.285 7.421 33.148 7.421 9.565 0 18.636-2.144 27.211-6.431 8.906-3.958 17.151-9.071 24.737-15.337a154.676 154.676 0 0 0 20.78-20.78c6.266-7.586 11.709-15.007 16.326-22.263 4.618-7.256 8.411-13.853 11.379-19.79 3.299-5.937 5.607-10.225 6.927-12.863.989-1.979 2.308-3.463 3.958-4.453 1.979-.989 3.793-1.154 5.442-.495 1.979.33 3.463 1.485 4.453 3.464.989 1.979.989 4.947 0 8.905-2.639 11.874-7.587 25.067-14.843 39.579-7.256 14.843-16.656 28.696-28.2 41.559-11.214 12.863-24.573 23.583-40.074 32.158-15.173 8.906-32.159 13.358-50.959 13.358Zm315.647-79.653c-7.586 0-14.183-1.485-19.79-4.453-5.277-2.639-9.565-6.267-12.864-10.884-3.298-4.618-5.442-9.895-6.431-15.832-.99-6.267-.66-12.864.989-19.79.99-4.618 2.639-10.719 4.948-18.306a869.358 869.358 0 0 0 6.926-25.232 470.818 470.818 0 0 0 6.927-27.21c2.308-9.236 3.793-17.481 4.452-24.738.66-7.586.33-13.688-.989-18.305-1.32-4.948-4.123-7.421-8.411-7.421-5.277 0-10.719 1.814-16.326 5.442-5.608 3.298-11.38 7.916-17.316 13.853-5.608 5.937-11.38 12.863-17.317 20.779a739.946 739.946 0 0 0-16.821 23.748c-2.968 11.214-5.442 21.109-7.421 29.684-1.979 8.246-3.793 15.832-5.442 22.759-1.319 6.596-2.639 12.533-3.958 17.81a298.32 298.32 0 0 0-3.463 14.348c-.99 3.298-3.958 6.596-8.906 9.895-4.947 2.968-10.224 5.442-15.832 7.421-5.607 1.979-10.389 2.968-14.347 2.968-4.288 0-6.102-1.484-5.442-4.452.33-1.979 1.484-6.432 3.463-13.358 1.649-6.927 3.793-15.008 6.432-24.243a3773.471 3773.471 0 0 1 7.421-30.179 3872.39 3872.39 0 0 0 7.421-30.18 8761.414 8761.414 0 0 0 5.442-25.232 2881.731 2881.731 0 0 1 5.937-27.705 2920.73 2920.73 0 0 1 8.905-34.632c2.309-1.979 4.618-3.464 6.927-4.453 2.638-1.319 5.277-2.309 7.916-2.968 2.638-.99 5.442-1.65 8.41-1.979 2.639 0 5.278.164 7.916.494 2.309.33 4.618.99 6.927 1.979 2.638.66 4.947 1.814 6.926 3.463-.989 2.309-2.144 5.608-3.463 9.895a310.76 310.76 0 0 0-3.958 12.864c-1.319 5.277-2.968 10.719-4.947 16.326 4.287-5.937 9.07-11.874 14.347-17.811 5.607-6.266 11.544-11.873 17.811-16.821 6.596-4.947 13.523-8.905 20.779-11.874 7.256-3.298 14.678-4.947 22.264-4.947 6.266 0 11.873 1.814 16.821 5.442 4.947 3.628 8.74 8.741 11.379 15.337 2.968 6.267 4.618 13.853 4.947 22.758.66 8.906-.494 18.636-3.463 29.19l-5.442 21.769c-1.649 6.926-3.793 15.172-6.432 24.737-2.308 9.235-5.277 19.46-8.905 30.674-1.979 7.257-2.804 13.523-2.474 18.801.66 5.277 3.958 7.915 9.895 7.915 5.937 0 13.358-3.628 22.264-10.884 9.235-7.256 18.47-15.997 27.705-26.221a570.662 570.662 0 0 0 26.222-31.169c8.246-10.885 14.512-19.625 18.8-26.222 2.969-4.287 5.772-7.091 8.411-8.41 2.638-1.32 4.617-1.484 5.937-.495 1.649.989 2.473 3.298 2.473 6.926 0 3.299-1.319 7.586-3.958 12.864-2.308 4.617-5.937 10.719-10.884 18.305-4.618 7.586-10.225 15.667-16.821 24.243-6.597 8.575-13.688 17.316-21.274 26.221-7.586 8.576-15.502 16.492-23.748 23.748-8.246 6.926-16.491 12.533-24.737 16.821-7.916 4.618-15.502 6.927-22.758 6.927Z"/><path d="M738.678 270.13c-9.895 14.513-21.109 28.695-33.643 42.548-12.534 13.523-25.892 25.727-40.074 36.611-13.853 10.555-28.201 19.13-43.043 25.727-14.512 6.597-28.695 9.895-42.548 9.895-7.256 0-15.172-1.814-23.748-5.442-8.245-3.299-15.831-8.576-22.758-15.832-6.926-7.256-12.533-16.657-16.821-28.201-3.958-11.544-5.113-25.561-3.463-42.053 1.319-13.523 5.442-27.705 12.368-42.548 7.256-15.172 15.997-29.025 26.222-41.558 10.554-12.534 22.263-22.923 35.126-31.169 13.194-8.246 26.387-12.369 39.58-12.369 12.533 0 21.604 3.134 27.211 9.4 5.607 6.267 8.081 14.018 7.421 23.253-.989 10.225-3.958 19.625-8.905 28.201-4.618 8.575-10.225 16.326-16.822 23.253a163.74 163.74 0 0 1-21.274 18.8c-7.256 5.607-14.182 10.719-20.779 15.337a2053.33 2053.33 0 0 0-20.779 14.348c-6.597 4.287-12.369 8.245-17.316 11.874.33 8.245 1.814 15.172 4.453 20.779 2.638 5.607 5.936 10.224 9.894 13.853 3.958 3.298 8.411 5.772 13.358 7.421 5.278 1.319 10.555 1.979 15.832 1.979 11.214 0 22.923-3.463 35.127-10.39 12.204-7.256 24.078-15.832 35.622-25.727 11.874-10.224 22.758-20.779 32.653-31.663 10.225-10.885 18.635-20.285 25.232-28.201 2.309-2.638 4.617-4.122 6.926-4.452 2.639-.66 4.618-.33 5.937.989 1.649.99 2.474 2.969 2.474 5.937 0 2.639-1.155 5.772-3.463 9.4Zm-126.655-76.19c-3.958 0-8.74 1.979-14.347 5.937-5.278 3.958-10.555 9.73-15.832 17.316-5.278 7.256-10.225 16.326-14.843 27.211-4.617 10.554-8.08 22.758-10.389 36.611 3.958-2.969 8.246-5.937 12.863-8.906a378.594 378.594 0 0 0 13.853-10.389c14.183-10.885 24.078-20.45 29.685-28.696 5.607-8.245 8.74-15.337 9.4-21.274.659-6.266 0-10.719-1.979-13.358-1.979-2.968-4.783-4.452-8.411-4.452Z"/><path d="M712.951 321.584c-3.628-3.629-6.267-7.092-7.916-10.39-1.319-3.628-2.309-7.091-2.968-10.39a30.162 30.162 0 0 1 0-10.884 45.656 45.656 0 0 1 5.936-12.863c2.309-3.628 5.443-7.257 9.401-10.885 3.958-3.958 9.235-7.586 15.831-10.884 4.288-10.555 8.081-21.604 11.38-33.148 3.628-11.874 6.761-22.593 9.4-32.158a620.82 620.82 0 0 0 7.916-33.643c8.245-28.035 12.533-50.794 12.863-68.275.33-17.81 0-29.52-.99-35.126l-.989-6.927a155.454 155.454 0 0 1-1.979-6.431c-.33-2.64-.825-5.113-1.484-7.422 3.628-1.979 6.761-3.628 9.4-4.947 2.968-1.32 5.442-2.309 7.421-2.968 2.309-.99 4.453-1.65 6.432-1.98 7.586-1.649 14.677-2.473 21.274-2.473 6.926-.33 10.719.824 11.379 3.463.33 1.65.659 4.618.989 8.905.66 4.288.99 9.565.99 15.832 0 6.267-.495 13.358-1.484 21.274-.99 7.586-2.804 15.667-5.443 24.243-2.308 7.586-5.442 18.14-9.4 31.663-3.628 11.544-8.41 27.046-14.347 46.506-5.937 19.13-13.688 43.703-23.253 73.717 9.895-3.298 20.779-6.432 32.653-9.4a437.523 437.523 0 0 1 36.116-7.421 494.032 494.032 0 0 1 37.106-4.453c12.533-.989 24.077-1.154 34.632-.495 1.979 0 3.298.99 3.958 2.969.989 1.649.989 3.463 0 5.442-.66 1.979-2.474 3.958-5.442 5.937-2.639 1.649-6.597 2.639-11.874 2.968a897.252 897.252 0 0 0-21.769 2.474c-7.916.66-16.161 1.814-24.737 3.463a221.74 221.74 0 0 0-24.737 5.442c-8.246 1.979-15.997 4.453-23.253 7.422l-16.822 5.937c-4.617 1.649-9.565 3.628-14.842 5.936-4.947 1.979-9.07 3.794-12.368 5.443l-11.38 36.116c19.131 13.523 33.808 27.376 44.033 41.558 10.554 14.183 18.14 27.211 22.758 39.085 5.607 13.853 8.74 27.376 9.4 40.569 0 14.513-2.144 29.025-6.432 43.538-4.287 14.842-10.059 28.86-17.316 42.053-6.926 13.523-15.172 26.056-24.737 37.601-9.235 11.544-19.13 21.438-29.685 29.684-10.224 8.246-20.779 14.513-31.663 18.8-10.555 4.288-20.614 5.937-30.18 4.948-6.926-.66-12.698-2.969-17.316-6.927-4.617-3.628-8.08-8.41-10.389-14.347-2.309-5.607-3.628-12.039-3.958-19.295-.33-6.927.33-13.853 1.979-20.779 1.319-6.927 4.123-19.79 8.41-38.59 3.629-15.832 9.236-38.92 16.822-69.265 7.586-30.014 17.811-70.088 30.674-120.222Zm29.19 23.253c-4.618 16.491-8.741 31.663-12.369 45.516-3.298 13.853-6.102 26.057-8.41 36.611-2.969 12.204-5.278 23.253-6.927 33.148a1218.965 1218.965 0 0 1-9.4 37.106c-2.968 12.203-5.277 23.088-6.926 32.653-1.979 9.895-2.804 17.811-2.474 23.748.33 5.937 2.474 8.905 6.432 8.905 9.565.66 19.459-3.133 29.684-11.379 10.555-7.916 20.12-18.141 28.695-30.674 8.576-12.204 15.667-25.562 21.274-40.075 5.607-14.182 8.411-27.375 8.411-39.579 0-13.523-2.144-26.881-6.432-40.074a168.025 168.025 0 0 0-10.389-20.285c-3.628-5.607-8.081-11.544-13.358-17.811-4.948-6.596-10.885-12.533-17.811-17.81Z"/><path d="M976.649 81.633c-.989 3.628-2.968 7.256-5.936 10.884a38.218 38.218 0 0 1-9.401 8.411c-3.298 1.979-6.761 3.298-10.389 3.958-3.628.659-6.597 0-8.906-1.979-6.926-5.278-10.554-10.885-10.884-16.822-.33-6.266 1.154-12.038 4.453-17.316 3.298-5.607 7.421-10.224 12.368-13.852 4.948-3.958 9.236-6.267 12.864-6.927 3.628-.66 6.596.165 8.905 2.474 2.639 1.979 4.618 4.782 5.937 8.41 1.319 3.299 1.979 7.092 1.979 11.38.33 4.287 0 8.08-.99 11.379Zm-68.274 105.38c1.649-1.979 4.782-3.628 9.4-4.947 4.618-1.32 9.4-2.309 14.348-2.969 4.947-.989 9.4-1.484 13.358-1.484 4.287-.33 6.761-.33 7.421 0 .33.33-.495 3.793-2.474 10.39-1.979 6.596-4.453 14.347-7.421 23.253a2866.489 2866.489 0 0 1-9.4 27.705c-3.299 9.236-5.772 16.822-7.421 22.759-1.65 5.937-3.629 12.698-5.937 20.284a542.762 542.762 0 0 0-6.432 21.769c-1.649 6.926-2.804 13.523-3.463 19.79-.66 6.266-.165 11.049 1.484 14.347 1.649 3.958 3.463 6.762 5.442 8.411 1.979 1.319 4.123 1.979 6.432 1.979 6.596 0 14.842-3.628 24.737-10.885 10.225-7.256 20.449-15.831 30.674-25.726 10.555-10.225 20.285-20.45 29.187-30.674 8.91-10.555 15.51-18.966 19.79-25.232 2.64-3.299 5.28-5.443 7.92-6.432 2.97-.989 5.28-.825 6.93.495 1.97 1.319 2.96 3.463 2.96 6.431.33 2.969-.66 6.432-2.96 10.39-5.28 9.235-13.03 20.285-23.26 33.148-10.22 12.533-21.107 24.737-32.651 36.611-11.544 11.544-22.923 21.439-34.137 29.685-10.885 8.245-19.79 12.533-26.716 12.863-5.608.33-11.215-.66-16.822-2.969-5.277-1.979-10.224-4.782-14.842-8.41a60.36 60.36 0 0 1-10.884-13.358c-2.969-5.278-4.618-10.72-4.948-16.327-.989-8.246-.989-19.46 0-33.642.99-14.513 2.804-29.19 5.442-44.033 2.639-15.172 5.937-29.519 9.895-43.042 4.288-13.523 9.071-23.583 14.348-30.18Z"/><path d="M1189.39 247.867c1.32-1.979 2.97-3.134 4.95-3.463 2.31-.66 4.12-.495 5.44.494 1.32.99 1.98 2.639 1.98 4.948.33 2.309-.5 5.442-2.48 9.4-6.59 12.533-15.33 26.056-26.22 40.569-10.55 14.512-21.77 28.2-33.64 41.064-11.87 12.533-23.42 22.923-34.63 31.169-11.22 8.245-20.62 12.368-28.2 12.368-10.89 0-19.96-2.144-27.21-6.432-7.26-4.287-13.03-9.565-17.32-15.831a64.442 64.442 0 0 1-8.41-20.285c-1.65-7.586-2.14-14.512-1.48-20.779.33-5.277 1.48-14.678 3.46-28.201 1.98-13.852 4.62-29.684 7.92-47.495 3.29-18.141 6.92-37.436 10.88-57.885 4.29-20.779 8.74-40.734 13.36-59.864-5.61.66-11.22 1.319-16.82 1.979-5.61.66-10.72.989-15.34.989-10.56 0-20.45-1.154-29.686-3.463-9.565-2.638-16.656-5.112-21.273-7.421-2.639-1.319-3.794-3.133-3.464-5.442.33-2.639 1.32-5.112 2.969-7.421a19.969 19.969 0 0 1 6.431-6.432c2.309-1.979 4.453-2.968 6.432-2.968 6.267.66 13.031 1.319 20.281 1.979 7.26.33 15.18.33 23.75 0 6.27-.33 12.21-.825 17.81-1.485a273.4 273.4 0 0 0 17.32-2.473c4.29-15.832 8.41-29.52 12.37-41.064 4.28-11.874 8.08-20.12 11.38-24.737.99-1.65 3.13-2.969 6.43-3.958a43.786 43.786 0 0 1 11.38-2.474c3.95-.66 7.75-.66 11.38 0 3.62.33 6.26 1.484 7.91 3.463 1.65 2.639 2.31 9.4 1.98 20.285-.33 10.884-2.14 24.737-5.44 41.558 13.85 0 26.05.825 36.61 2.474 10.88 1.32 20.12 2.968 27.71 4.947 7.58 1.65 13.68 3.464 18.3 5.443 4.62 1.649 8.08 2.803 10.39 3.463 2.31.659 3.46 2.309 3.46 4.947.33 2.639-.16 5.442-1.48 8.411-.99 2.638-2.8 4.947-5.44 6.926-2.64 1.979-5.61 2.639-8.91 1.979-3.3-.33-7.09-.989-11.38-1.979-3.96-.989-8.9-1.814-14.84-2.473-5.61-.66-12.37-1.32-20.28-1.979-7.92-.66-17.16-.99-27.71-.99-1.98 0-4.29.165-6.93.495h-7.42l-3.96 15.832c-.98 4.947-2.47 10.224-4.45 15.831-4.29 13.194-9.23 27.541-14.84 43.043-4.95 13.523-10.88 29.025-17.81 46.506-6.93 17.481-14.68 36.116-23.25 55.906-1.98 14.183-1.82 25.067.49 32.653 2.64 7.257 5.77 12.534 9.4 15.832 4.29 3.628 9.57 5.607 15.83 5.937 4.95.66 10.89-.989 17.81-4.947 7.26-4.288 14.68-9.895 22.27-16.822 7.58-6.926 15.17-14.512 22.76-22.758 7.91-8.246 15.17-16.327 21.76-24.242 6.6-7.916 12.37-15.008 17.32-21.274 4.95-6.597 8.41-11.215 10.39-13.853Z"/><path d="M1229.46 356.216c1.98 1.319 4.46 1.979 7.42 1.979 3.3 0 6.44-.66 9.4-1.979 3.3-1.32 6.27-3.134 8.91-5.442 2.97-2.309 5.11-5.278 6.43-8.906 1.32-3.628 1.32-8.74 0-15.337-1.32-6.926-3.46-14.183-6.43-21.769a347.12 347.12 0 0 0-8.91-23.747c-3.29-7.916-6.1-15.173-8.41-21.769-1.97-4.948-3.62-9.565-4.94-13.853a351.587 351.587 0 0 0-3.96-10.39c-.99-3.628-1.82-6.101-2.47-7.421-1.65 2.639-4.62 6.927-8.91 12.864-3.96 5.937-8.41 12.203-13.36 18.8-4.62 6.267-9.07 12.204-13.36 17.811-4.28 5.277-7.25 8.905-8.9 10.884-2.64 2.968-5.28 4.783-7.92 5.442-2.31.33-4.29-.165-5.93-1.484-1.65-1.649-2.64-3.793-2.97-6.432 0-2.968 1.32-6.431 3.95-10.389 1.98-2.639 4.95-6.762 8.91-12.369 3.96-5.937 7.92-11.874 11.87-17.811 3.96-6.266 7.59-11.709 10.89-16.326 3.3-4.948 5.11-7.916 5.44-8.906.66-2.638-.33-6.101-2.97-10.389-2.31-4.288-2.64-9.235-.99-14.843 1.32-4.617 4.29-9.894 8.91-15.831 4.62-6.267 10.06-11.874 16.32-16.822 6.27-4.947 12.7-8.575 19.3-10.884 6.6-2.639 12.53-2.639 17.81 0 4.29 2.639 7.75 5.607 10.39 8.905 2.64 2.969 3.63 6.102 2.97 9.4-.66 1.65-1.65 3.793-2.97 6.432-1.32 2.639-3.3 5.937-5.94 9.895-2.64 3.628-6.43 8.411-11.38 14.348.99 7.586 2.31 14.512 3.96 20.779 1.98 6.267 3.8 11.709 5.44 16.326 1.98 5.607 4.13 10.72 6.44 15.337 2.96 5.937 6.1 12.039 9.4 18.306a245.742 245.742 0 0 1 8.9 18.8c2.64 5.937 4.78 11.544 6.43 16.822 1.65 5.277 2.15 9.73 1.49 13.358-.99 5.607-3.96 12.368-8.91 20.284-4.62 7.916-10.55 15.667-17.81 23.253-6.93 7.256-15.01 13.523-24.24 18.8-8.91 5.278-18.31 7.916-28.2 7.916-6.93 0-13.69-2.144-20.29-6.431-6.26-4.288-11.71-9.236-16.32-14.843-4.29-5.937-7.59-11.709-9.9-17.316-1.98-5.607-2.14-9.895-.49-12.863 1.98-3.958 3.79-7.091 5.44-9.4 1.65-2.309 4.12-4.948 7.42-7.916 1.32-.99 2.97-2.144 4.95-3.463 1.65-.99 3.96-1.979 6.92-2.969 2.97-.989 6.44-2.144 10.39-3.463 3.3 10.225 6.27 18.306 8.91 24.242 2.64 5.608 4.78 10.06 6.43 13.359 1.98 3.628 3.79 6.101 5.44 7.421Z"/></g><defs><clipPath id="a"><path fill="#fff" d="M0 0h1300v612H0z"/></clipPath></defs></svg>